<mxfile host="app.diagrams.net" agent="Mozilla/5.0 (Windows NT 10.0; Win64; x64) AppleWebKit/537.36 (KHTML, like Gecko) Chrome/127.0.0.0 Safari/537.36 Edg/127.0.0.0" version="24.7.6">
  <diagram name="Page-1" id="K3TaJvRbTM5OinvlYWlE">
    <mxGraphModel dx="924" dy="589" grid="1" gridSize="10" guides="1" tooltips="1" connect="1" arrows="1" fold="1" page="1" pageScale="1" pageWidth="827" pageHeight="1169" math="0" shadow="0">
      <root>
        <mxCell id="0" />
        <mxCell id="1" parent="0" />
        <mxCell id="MUjoiSwJ5ZX3wCGiA-6C-2" value="Gateway" style="outlineConnect=0;dashed=0;verticalLabelPosition=bottom;verticalAlign=top;align=center;html=1;shape=mxgraph.aws3.api_gateway;fillColor=#D9A741;gradientColor=none;" vertex="1" parent="1">
          <mxGeometry x="240" y="690" width="76.5" height="93" as="geometry" />
        </mxCell>
        <mxCell id="MUjoiSwJ5ZX3wCGiA-6C-6" value="with Access token" style="rounded=0;orthogonalLoop=1;jettySize=auto;html=1;" edge="1" parent="1" source="MUjoiSwJ5ZX3wCGiA-6C-4" target="MUjoiSwJ5ZX3wCGiA-6C-2">
          <mxGeometry relative="1" as="geometry" />
        </mxCell>
        <mxCell id="MUjoiSwJ5ZX3wCGiA-6C-4" value="Web" style="html=1;verticalLabelPosition=bottom;align=center;labelBackgroundColor=#ffffff;verticalAlign=top;strokeWidth=2;strokeColor=#0080F0;shadow=0;dashed=0;shape=mxgraph.ios7.icons.globe;" vertex="1" parent="1">
          <mxGeometry x="20" y="706.5" width="60" height="60" as="geometry" />
        </mxCell>
        <mxCell id="MUjoiSwJ5ZX3wCGiA-6C-8" value="" style="rounded=0;whiteSpace=wrap;html=1;" vertex="1" parent="1">
          <mxGeometry x="440" y="580" width="120" height="320" as="geometry" />
        </mxCell>
        <mxCell id="MUjoiSwJ5ZX3wCGiA-6C-28" style="edgeStyle=orthogonalEdgeStyle;rounded=0;orthogonalLoop=1;jettySize=auto;html=1;" edge="1" parent="1" source="MUjoiSwJ5ZX3wCGiA-6C-9" target="MUjoiSwJ5ZX3wCGiA-6C-11">
          <mxGeometry relative="1" as="geometry" />
        </mxCell>
        <mxCell id="MUjoiSwJ5ZX3wCGiA-6C-9" value="Service A" style="outlineConnect=0;dashed=0;verticalLabelPosition=bottom;verticalAlign=top;align=center;html=1;shape=mxgraph.aws3.instance;fillColor=#F58534;gradientColor=none;" vertex="1" parent="1">
          <mxGeometry x="470" y="591" width="60" height="63" as="geometry" />
        </mxCell>
        <mxCell id="MUjoiSwJ5ZX3wCGiA-6C-10" value="Service C" style="outlineConnect=0;dashed=0;verticalLabelPosition=bottom;verticalAlign=top;align=center;html=1;shape=mxgraph.aws3.instance;fillColor=#F58534;gradientColor=none;" vertex="1" parent="1">
          <mxGeometry x="470" y="810" width="60" height="63" as="geometry" />
        </mxCell>
        <mxCell id="MUjoiSwJ5ZX3wCGiA-6C-29" style="edgeStyle=orthogonalEdgeStyle;rounded=0;orthogonalLoop=1;jettySize=auto;html=1;" edge="1" parent="1" source="MUjoiSwJ5ZX3wCGiA-6C-11" target="MUjoiSwJ5ZX3wCGiA-6C-10">
          <mxGeometry relative="1" as="geometry" />
        </mxCell>
        <mxCell id="MUjoiSwJ5ZX3wCGiA-6C-11" value="Service B" style="outlineConnect=0;dashed=0;verticalLabelPosition=bottom;verticalAlign=top;align=center;html=1;shape=mxgraph.aws3.instance;fillColor=#F58534;gradientColor=none;" vertex="1" parent="1">
          <mxGeometry x="470" y="705.5" width="60" height="63" as="geometry" />
        </mxCell>
        <mxCell id="MUjoiSwJ5ZX3wCGiA-6C-15" style="rounded=0;orthogonalLoop=1;jettySize=auto;html=1;entryX=0;entryY=0.5;entryDx=0;entryDy=0;entryPerimeter=0;" edge="1" parent="1" source="MUjoiSwJ5ZX3wCGiA-6C-2" target="MUjoiSwJ5ZX3wCGiA-6C-9">
          <mxGeometry relative="1" as="geometry" />
        </mxCell>
        <mxCell id="MUjoiSwJ5ZX3wCGiA-6C-16" style="rounded=0;orthogonalLoop=1;jettySize=auto;html=1;entryX=0;entryY=0.5;entryDx=0;entryDy=0;entryPerimeter=0;" edge="1" parent="1" target="MUjoiSwJ5ZX3wCGiA-6C-11">
          <mxGeometry relative="1" as="geometry">
            <mxPoint x="317.5" y="736.5072463768115" as="sourcePoint" />
            <mxPoint x="461" y="737" as="targetPoint" />
          </mxGeometry>
        </mxCell>
        <mxCell id="MUjoiSwJ5ZX3wCGiA-6C-17" style="rounded=0;orthogonalLoop=1;jettySize=auto;html=1;entryX=0;entryY=0.5;entryDx=0;entryDy=0;entryPerimeter=0;" edge="1" parent="1" source="MUjoiSwJ5ZX3wCGiA-6C-2" target="MUjoiSwJ5ZX3wCGiA-6C-10">
          <mxGeometry relative="1" as="geometry" />
        </mxCell>
        <mxCell id="MUjoiSwJ5ZX3wCGiA-6C-18" value="Public services" style="text;html=1;align=center;verticalAlign=middle;resizable=0;points=[];autosize=1;strokeColor=none;fillColor=none;" vertex="1" parent="1">
          <mxGeometry x="448" y="899.75" width="100" height="30" as="geometry" />
        </mxCell>
        <mxCell id="MUjoiSwJ5ZX3wCGiA-6C-40" value="" style="rounded=0;whiteSpace=wrap;html=1;" vertex="1" parent="1">
          <mxGeometry x="640" y="580" width="120" height="320" as="geometry" />
        </mxCell>
        <mxCell id="MUjoiSwJ5ZX3wCGiA-6C-41" style="edgeStyle=orthogonalEdgeStyle;rounded=0;orthogonalLoop=1;jettySize=auto;html=1;" edge="1" parent="1" source="MUjoiSwJ5ZX3wCGiA-6C-42" target="MUjoiSwJ5ZX3wCGiA-6C-45">
          <mxGeometry relative="1" as="geometry" />
        </mxCell>
        <mxCell id="MUjoiSwJ5ZX3wCGiA-6C-42" value="Service X" style="outlineConnect=0;dashed=0;verticalLabelPosition=bottom;verticalAlign=top;align=center;html=1;shape=mxgraph.aws3.instance;fillColor=#f8cecc;strokeColor=#b85450;" vertex="1" parent="1">
          <mxGeometry x="670" y="591" width="60" height="63" as="geometry" />
        </mxCell>
        <mxCell id="MUjoiSwJ5ZX3wCGiA-6C-43" value="Service Z" style="outlineConnect=0;dashed=0;verticalLabelPosition=bottom;verticalAlign=top;align=center;html=1;shape=mxgraph.aws3.instance;fillColor=#f8cecc;strokeColor=#b85450;" vertex="1" parent="1">
          <mxGeometry x="670" y="810" width="60" height="63" as="geometry" />
        </mxCell>
        <mxCell id="MUjoiSwJ5ZX3wCGiA-6C-44" style="edgeStyle=orthogonalEdgeStyle;rounded=0;orthogonalLoop=1;jettySize=auto;html=1;" edge="1" parent="1" source="MUjoiSwJ5ZX3wCGiA-6C-45" target="MUjoiSwJ5ZX3wCGiA-6C-43">
          <mxGeometry relative="1" as="geometry" />
        </mxCell>
        <mxCell id="MUjoiSwJ5ZX3wCGiA-6C-45" value="Service Y" style="outlineConnect=0;dashed=0;verticalLabelPosition=bottom;verticalAlign=top;align=center;html=1;shape=mxgraph.aws3.instance;fillColor=#f8cecc;strokeColor=#b85450;" vertex="1" parent="1">
          <mxGeometry x="670" y="705.5" width="60" height="63" as="geometry" />
        </mxCell>
        <mxCell id="MUjoiSwJ5ZX3wCGiA-6C-46" value="Private services" style="text;html=1;align=center;verticalAlign=middle;resizable=0;points=[];autosize=1;strokeColor=none;fillColor=none;" vertex="1" parent="1">
          <mxGeometry x="643" y="899.75" width="110" height="30" as="geometry" />
        </mxCell>
        <mxCell id="MUjoiSwJ5ZX3wCGiA-6C-49" style="edgeStyle=orthogonalEdgeStyle;rounded=0;orthogonalLoop=1;jettySize=auto;html=1;entryX=0;entryY=0.5;entryDx=0;entryDy=0;entryPerimeter=0;" edge="1" parent="1" source="MUjoiSwJ5ZX3wCGiA-6C-10" target="MUjoiSwJ5ZX3wCGiA-6C-43">
          <mxGeometry relative="1" as="geometry" />
        </mxCell>
        <mxCell id="MUjoiSwJ5ZX3wCGiA-6C-48" style="edgeStyle=orthogonalEdgeStyle;rounded=0;orthogonalLoop=1;jettySize=auto;html=1;" edge="1" parent="1" source="MUjoiSwJ5ZX3wCGiA-6C-11" target="MUjoiSwJ5ZX3wCGiA-6C-45">
          <mxGeometry relative="1" as="geometry" />
        </mxCell>
        <mxCell id="MUjoiSwJ5ZX3wCGiA-6C-47" style="edgeStyle=orthogonalEdgeStyle;rounded=0;orthogonalLoop=1;jettySize=auto;html=1;" edge="1" parent="1" source="MUjoiSwJ5ZX3wCGiA-6C-9" target="MUjoiSwJ5ZX3wCGiA-6C-42">
          <mxGeometry relative="1" as="geometry" />
        </mxCell>
        <mxCell id="MUjoiSwJ5ZX3wCGiA-6C-51" style="rounded=0;orthogonalLoop=1;jettySize=auto;html=1;entryX=0;entryY=0.5;entryDx=0;entryDy=0;entryPerimeter=0;exitX=1;exitY=0.5;exitDx=0;exitDy=0;exitPerimeter=0;" edge="1" parent="1" source="MUjoiSwJ5ZX3wCGiA-6C-10" target="MUjoiSwJ5ZX3wCGiA-6C-45">
          <mxGeometry relative="1" as="geometry" />
        </mxCell>
        <mxCell id="MUjoiSwJ5ZX3wCGiA-6C-50" style="rounded=0;orthogonalLoop=1;jettySize=auto;html=1;exitX=1;exitY=0.5;exitDx=0;exitDy=0;exitPerimeter=0;entryX=0;entryY=0.5;entryDx=0;entryDy=0;entryPerimeter=0;" edge="1" parent="1" source="MUjoiSwJ5ZX3wCGiA-6C-9" target="MUjoiSwJ5ZX3wCGiA-6C-45">
          <mxGeometry relative="1" as="geometry" />
        </mxCell>
        <mxCell id="MUjoiSwJ5ZX3wCGiA-6C-52" value="" style="rounded=0;whiteSpace=wrap;html=1;" vertex="1" parent="1">
          <mxGeometry x="840" y="580" width="120" height="320" as="geometry" />
        </mxCell>
        <mxCell id="MUjoiSwJ5ZX3wCGiA-6C-53" style="edgeStyle=orthogonalEdgeStyle;rounded=0;orthogonalLoop=1;jettySize=auto;html=1;" edge="1" parent="1" source="MUjoiSwJ5ZX3wCGiA-6C-54" target="MUjoiSwJ5ZX3wCGiA-6C-57">
          <mxGeometry relative="1" as="geometry" />
        </mxCell>
        <mxCell id="MUjoiSwJ5ZX3wCGiA-6C-54" value="Service I" style="outlineConnect=0;dashed=0;verticalLabelPosition=bottom;verticalAlign=top;align=center;html=1;shape=mxgraph.aws3.instance;fillColor=#d5e8d4;strokeColor=#82b366;" vertex="1" parent="1">
          <mxGeometry x="870" y="591" width="60" height="63" as="geometry" />
        </mxCell>
        <mxCell id="MUjoiSwJ5ZX3wCGiA-6C-55" value="Service III" style="outlineConnect=0;dashed=0;verticalLabelPosition=bottom;verticalAlign=top;align=center;html=1;shape=mxgraph.aws3.instance;fillColor=#d5e8d4;strokeColor=#82b366;" vertex="1" parent="1">
          <mxGeometry x="870" y="810" width="60" height="63" as="geometry" />
        </mxCell>
        <mxCell id="MUjoiSwJ5ZX3wCGiA-6C-56" style="edgeStyle=orthogonalEdgeStyle;rounded=0;orthogonalLoop=1;jettySize=auto;html=1;" edge="1" parent="1" source="MUjoiSwJ5ZX3wCGiA-6C-57" target="MUjoiSwJ5ZX3wCGiA-6C-55">
          <mxGeometry relative="1" as="geometry" />
        </mxCell>
        <mxCell id="MUjoiSwJ5ZX3wCGiA-6C-57" value="Service II" style="outlineConnect=0;dashed=0;verticalLabelPosition=bottom;verticalAlign=top;align=center;html=1;shape=mxgraph.aws3.instance;fillColor=#d5e8d4;strokeColor=#82b366;" vertex="1" parent="1">
          <mxGeometry x="870" y="705.5" width="60" height="63" as="geometry" />
        </mxCell>
        <mxCell id="MUjoiSwJ5ZX3wCGiA-6C-58" value="Integrated services" style="text;html=1;align=center;verticalAlign=middle;resizable=0;points=[];autosize=1;strokeColor=none;fillColor=none;" vertex="1" parent="1">
          <mxGeometry x="838" y="899.75" width="120" height="30" as="geometry" />
        </mxCell>
        <mxCell id="MUjoiSwJ5ZX3wCGiA-6C-59" style="edgeStyle=orthogonalEdgeStyle;rounded=0;orthogonalLoop=1;jettySize=auto;html=1;" edge="1" parent="1" source="MUjoiSwJ5ZX3wCGiA-6C-42" target="MUjoiSwJ5ZX3wCGiA-6C-54">
          <mxGeometry relative="1" as="geometry" />
        </mxCell>
        <mxCell id="MUjoiSwJ5ZX3wCGiA-6C-60" style="rounded=0;orthogonalLoop=1;jettySize=auto;html=1;entryX=0;entryY=0.5;entryDx=0;entryDy=0;entryPerimeter=0;exitX=1;exitY=0.5;exitDx=0;exitDy=0;exitPerimeter=0;" edge="1" parent="1" source="MUjoiSwJ5ZX3wCGiA-6C-42" target="MUjoiSwJ5ZX3wCGiA-6C-57">
          <mxGeometry relative="1" as="geometry" />
        </mxCell>
        <mxCell id="MUjoiSwJ5ZX3wCGiA-6C-63" style="rounded=0;orthogonalLoop=1;jettySize=auto;html=1;entryX=0;entryY=0.5;entryDx=0;entryDy=0;entryPerimeter=0;exitX=1;exitY=0.5;exitDx=0;exitDy=0;exitPerimeter=0;" edge="1" parent="1" source="MUjoiSwJ5ZX3wCGiA-6C-43" target="MUjoiSwJ5ZX3wCGiA-6C-57">
          <mxGeometry relative="1" as="geometry" />
        </mxCell>
        <mxCell id="MUjoiSwJ5ZX3wCGiA-6C-61" style="rounded=0;orthogonalLoop=1;jettySize=auto;html=1;" edge="1" parent="1" source="MUjoiSwJ5ZX3wCGiA-6C-45" target="MUjoiSwJ5ZX3wCGiA-6C-57">
          <mxGeometry relative="1" as="geometry" />
        </mxCell>
        <mxCell id="MUjoiSwJ5ZX3wCGiA-6C-62" style="edgeStyle=orthogonalEdgeStyle;rounded=0;orthogonalLoop=1;jettySize=auto;html=1;" edge="1" parent="1" source="MUjoiSwJ5ZX3wCGiA-6C-43" target="MUjoiSwJ5ZX3wCGiA-6C-55">
          <mxGeometry relative="1" as="geometry" />
        </mxCell>
      </root>
    </mxGraphModel>
  </diagram>
</mxfile>
